<svg width="22" height="18" viewBox="0 0 22 18" fill="none" xmlns="http://www.w3.org/2000/svg">
<path d="M20.75 0.773408H15.3875C14.2367 0.773408 13.1117 1.10388 12.1437 1.72731L11 2.46091L9.85625 1.72731C8.88924 1.104 7.76299 0.772793 6.6125 0.773408H1.25C0.835156 0.773408 0.5 1.10856 0.5 1.52341V14.8359C0.5 15.2508 0.835156 15.5859 1.25 15.5859H6.6125C7.76328 15.5859 8.88828 15.9164 9.85625 16.5398L10.8969 17.2101C10.9273 17.2289 10.9625 17.2406 10.9977 17.2406C11.0328 17.2406 11.068 17.2312 11.0984 17.2101L12.1391 16.5398C13.1094 15.9164 14.2367 15.5859 15.3875 15.5859H20.75C21.1648 15.5859 21.5 15.2508 21.5 14.8359V1.52341C21.5 1.10856 21.1648 0.773408 20.75 0.773408ZM6.6125 13.8984H2.1875V2.46091H6.6125C7.44219 2.46091 8.24844 2.69763 8.94453 3.14528L10.0883 3.87888L10.25 3.98435V14.8125C9.13437 14.2125 7.8875 13.8984 6.6125 13.8984ZM19.8125 13.8984H15.3875C14.1125 13.8984 12.8656 14.2125 11.75 14.8125V3.98435L11.9117 3.87888L13.0555 3.14528C13.7516 2.69763 14.5578 2.46091 15.3875 2.46091H19.8125V13.8984ZM8.30234 5.46091H3.94766C3.85625 5.46091 3.78125 5.5406 3.78125 5.63669V6.69138C3.78125 6.78747 3.85625 6.86716 3.94766 6.86716H8.3C8.39141 6.86716 8.46641 6.78747 8.46641 6.69138V5.63669C8.46875 5.5406 8.39375 5.46091 8.30234 5.46091ZM13.5312 5.63669V6.69138C13.5312 6.78747 13.6062 6.86716 13.6977 6.86716H18.05C18.1414 6.86716 18.2164 6.78747 18.2164 6.69138V5.63669C18.2164 5.5406 18.1414 5.46091 18.05 5.46091H13.6977C13.6062 5.46091 13.5312 5.5406 13.5312 5.63669ZM8.30234 8.74216H3.94766C3.85625 8.74216 3.78125 8.82185 3.78125 8.91794V9.97263C3.78125 10.0687 3.85625 10.1484 3.94766 10.1484H8.3C8.39141 10.1484 8.46641 10.0687 8.46641 9.97263V8.91794C8.46875 8.82185 8.39375 8.74216 8.30234 8.74216ZM18.0523 8.74216H13.6977C13.6062 8.74216 13.5312 8.82185 13.5312 8.91794V9.97263C13.5312 10.0687 13.6062 10.1484 13.6977 10.1484H18.05C18.1414 10.1484 18.2164 10.0687 18.2164 9.97263V8.91794C18.2188 8.82185 18.1438 8.74216 18.0523 8.74216Z" fill="#72849E"/>
</svg>
