<svg width="20" height="22" viewBox="0 0 20 22" fill="none" xmlns="http://www.w3.org/2000/svg">
<path d="M19.675 13.6652L18.1398 12.3527C18.2125 11.9074 18.25 11.4527 18.25 10.998C18.25 10.5434 18.2125 10.0887 18.1398 9.64336L19.675 8.33086C19.7908 8.23173 19.8737 8.09971 19.9126 7.95234C19.9515 7.80497 19.9447 7.64924 19.893 7.50586L19.8719 7.44492C19.4492 6.26373 18.8164 5.16875 18.0039 4.21289L17.9617 4.16367C17.8631 4.04778 17.7318 3.96447 17.5849 3.92472C17.4381 3.88497 17.2826 3.89065 17.1391 3.94101L15.2336 4.61836C14.5305 4.04179 13.7453 3.58711 12.8969 3.26836L12.5289 1.27617C12.5011 1.12627 12.4284 0.988362 12.3204 0.880773C12.2124 0.773184 12.0742 0.701005 11.9242 0.673825L11.8609 0.662106C10.6398 0.441794 9.35546 0.441794 8.13437 0.662106L8.07109 0.673825C7.92108 0.701005 7.78289 0.773184 7.67488 0.880773C7.56688 0.988362 7.49416 1.12627 7.4664 1.27617L7.09609 3.27773C6.25442 3.59655 5.47062 4.05099 4.77577 4.62304L2.85624 3.94101C2.71272 3.89025 2.55716 3.88437 2.41022 3.92414C2.26327 3.96391 2.13191 4.04745 2.03359 4.16367L1.9914 4.21289C1.17987 5.16943 0.547124 6.26422 0.12343 7.44492L0.102336 7.50586C-0.00313249 7.79882 0.0835863 8.12695 0.320305 8.33086L1.87421 9.65742C1.80156 10.098 1.7664 10.548 1.7664 10.9957C1.7664 11.4457 1.80156 11.8957 1.87421 12.334L0.320305 13.6605C0.204514 13.7597 0.12164 13.8917 0.082705 14.0391C0.0437695 14.1864 0.0506167 14.3422 0.102336 14.4855L0.12343 14.5465C0.547649 15.7277 1.17577 16.8176 1.9914 17.7785L2.03359 17.8277C2.13215 17.9436 2.26352 18.0269 2.41037 18.0667C2.55723 18.1064 2.71268 18.1007 2.85624 18.0504L4.77577 17.3684C5.47421 17.9426 6.25468 18.3973 7.09609 18.7137L7.4664 20.7152C7.49416 20.8651 7.56688 21.003 7.67488 21.1106C7.78289 21.2182 7.92108 21.2904 8.07109 21.3176L8.13437 21.3293C9.36668 21.5508 10.6286 21.5508 11.8609 21.3293L11.9242 21.3176C12.0742 21.2904 12.2124 21.2182 12.3204 21.1106C12.4284 21.003 12.5011 20.8651 12.5289 20.7152L12.8969 18.723C13.745 18.4051 14.5345 17.949 15.2336 17.373L17.1391 18.0504C17.2826 18.1011 17.4381 18.107 17.5851 18.0673C17.732 18.0275 17.8634 17.9439 17.9617 17.8277L18.0039 17.7785C18.8195 16.8152 19.4476 15.7277 19.8719 14.5465L19.893 14.4855C19.9984 14.1973 19.9117 13.8691 19.675 13.6652ZM16.4758 9.91992C16.5344 10.2738 16.5648 10.6371 16.5648 11.0004C16.5648 11.3637 16.5344 11.7269 16.4758 12.0809L16.3211 13.0207L18.0719 14.5184C17.8065 15.1298 17.4714 15.7086 17.0734 16.2434L14.8984 15.4723L14.1625 16.077C13.6023 16.5363 12.9789 16.8973 12.3039 17.1504L11.4109 17.4855L10.9914 19.759C10.3295 19.834 9.66116 19.834 8.99921 19.759L8.57968 17.4809L7.69374 17.141C7.02577 16.8879 6.40468 16.527 5.84921 16.0699L5.11327 15.4629L2.92421 16.241C2.52577 15.7043 2.19296 15.1254 1.92577 14.516L3.69531 13.0043L3.54296 12.0668C3.48671 11.7176 3.45624 11.3566 3.45624 11.0004C3.45624 10.6418 3.48437 10.2832 3.54296 9.93398L3.69531 8.99648L1.92577 7.48476C2.19062 6.87304 2.52577 6.29648 2.92421 5.75976L5.11327 6.53789L5.84921 5.93086C6.40468 5.47383 7.02577 5.11289 7.69374 4.85976L8.58202 4.52461L9.00155 2.24648C9.66015 2.17148 10.3328 2.17148 10.9937 2.24648L11.4133 4.51992L12.3062 4.85507C12.9789 5.1082 13.6047 5.46914 14.1648 5.92851L14.9008 6.5332L17.0758 5.76211C17.4742 6.29882 17.807 6.87773 18.0742 7.48711L16.3234 8.98476L16.4758 9.91992ZM9.99999 6.64101C7.72187 6.64101 5.87499 8.48789 5.87499 10.766C5.87499 13.0441 7.72187 14.891 9.99999 14.891C12.2781 14.891 14.125 13.0441 14.125 10.766C14.125 8.48789 12.2781 6.64101 9.99999 6.64101ZM11.8562 12.6223C11.6128 12.8664 11.3234 13.06 11.0049 13.192C10.6863 13.3239 10.3448 13.3916 9.99999 13.391C9.29921 13.391 8.64062 13.1168 8.14374 12.6223C7.89958 12.3788 7.70596 12.0895 7.57403 11.7709C7.4421 11.4523 7.37446 11.1108 7.37499 10.766C7.37499 10.0652 7.64921 9.40664 8.14374 8.90976C8.64062 8.41289 9.29921 8.14101 9.99999 8.14101C10.7008 8.14101 11.3594 8.41289 11.8562 8.90976C12.1004 9.15323 12.294 9.44256 12.426 9.76113C12.5579 10.0797 12.6255 10.4212 12.625 10.766C12.625 11.4668 12.3508 12.1254 11.8562 12.6223Z" fill="#72849E"/>
</svg>
