<svg width="24" height="24" viewBox="0 0 24 24" fill="none" xmlns="http://www.w3.org/2000/svg">
<path d="M19.5001 13.2V11.25H18.0001V13.5C17.9974 13.5986 18.0162 13.6965 18.055 13.7872C18.0939 13.8778 18.1519 13.9589 18.2251 14.025L20.2501 16.05V17.25H3.75007V16.05L5.77507 14.025C5.84827 13.9589 5.90629 13.8778 5.94513 13.7872C5.98398 13.6965 6.00272 13.5986 6.00007 13.5V9.75C6.00007 8.1587 6.63221 6.63258 7.75743 5.50736C8.88265 4.38214 10.4088 3.75 12.0001 3.75C13.0551 3.7502 14.0908 4.03245 15.0001 4.5675V2.85C14.2871 2.53061 13.5274 2.32802 12.7501 2.25V0.75H11.2501V2.25C9.40332 2.46053 7.6974 3.33944 6.45398 4.72102C5.21057 6.10259 4.51558 7.89135 4.50007 9.75V13.2L2.47507 15.225C2.40187 15.2911 2.34385 15.3722 2.30501 15.4628C2.26617 15.5535 2.24743 15.6514 2.25007 15.75V18C2.24344 18.1002 2.2583 18.2007 2.29365 18.2947C2.32899 18.3887 2.38401 18.474 2.45502 18.545C2.52604 18.6161 2.6114 18.6711 2.7054 18.7064C2.7994 18.7418 2.89987 18.7566 3.00007 18.75H8.25007C8.25007 19.7446 8.64516 20.6984 9.34842 21.4016C10.0517 22.1049 11.0055 22.5 12.0001 22.5C12.9946 22.5 13.9485 22.1049 14.6517 21.4016C15.355 20.6984 15.7501 19.7446 15.7501 18.75H21.0001C21.1003 18.7566 21.2007 18.7418 21.2947 18.7064C21.3887 18.6711 21.4741 18.6161 21.5451 18.545C21.6161 18.474 21.6712 18.3887 21.7065 18.2947C21.7418 18.2007 21.7567 18.1002 21.7501 18V15.75C21.7527 15.6514 21.734 15.5535 21.6951 15.4628C21.6563 15.3722 21.5983 15.2911 21.5251 15.225L19.5001 13.2ZM12.0001 21C11.4033 21 10.831 20.7629 10.4091 20.341C9.98712 19.919 9.75007 19.3467 9.75007 18.75H14.2501C14.2501 19.3467 14.013 19.919 13.5911 20.341C13.1691 20.7629 12.5968 21 12.0001 21Z" fill="#72849E"/>
<path d="M19.5 9C21.1569 9 22.5 7.65685 22.5 6C22.5 4.34315 21.1569 3 19.5 3C17.8431 3 16.5 4.34315 16.5 6C16.5 7.65685 17.8431 9 19.5 9Z" fill="#258FFB"/>
</svg>
