<svg width="20" height="20" viewBox="0 0 20 20" fill="none" xmlns="http://www.w3.org/2000/svg">
<path d="M17.3176 14.4039C16.731 13.8168 16.0455 13.3376 15.2926 12.9883C16.3543 12.1281 17.0317 10.8156 17.0317 9.34372C17.0317 6.74685 14.8661 4.61638 12.2692 4.65622C9.71214 4.69606 7.65199 6.77966 7.65199 9.34372C7.65199 10.8156 8.33168 12.1281 9.39105 12.9883C8.63802 13.3373 7.9525 13.8165 7.36605 14.4039C6.08636 15.6859 5.3598 17.3781 5.31293 19.1828C5.3123 19.2078 5.31669 19.2327 5.32583 19.256C5.33497 19.2793 5.34868 19.3005 5.36616 19.3184C5.38363 19.3363 5.40451 19.3505 5.42757 19.3603C5.45063 19.37 5.4754 19.375 5.50043 19.375H6.81293C6.91371 19.375 6.99808 19.2953 7.00043 19.1945C7.04496 17.8351 7.59574 16.5625 8.56371 15.5968C9.05903 15.0989 9.64821 14.7041 10.2971 14.4354C10.946 14.1666 11.6418 14.0293 12.3442 14.0312C13.7715 14.0312 15.1145 14.5867 16.1246 15.5968C17.0903 16.5625 17.6411 17.8351 17.6879 19.1945C17.6903 19.2953 17.7746 19.375 17.8754 19.375H19.1879C19.2129 19.375 19.2377 19.37 19.2608 19.3603C19.2838 19.3505 19.3047 19.3363 19.3222 19.3184C19.3397 19.3005 19.3534 19.2793 19.3625 19.256C19.3717 19.2327 19.3761 19.2078 19.3754 19.1828C19.3286 17.3781 18.602 15.6859 17.3176 14.4039ZM12.3442 12.3437C11.5426 12.3437 10.7879 12.032 10.2231 11.4648C9.93961 11.1836 9.7157 10.8481 9.56469 10.4785C9.41369 10.1088 9.33869 9.71252 9.34418 9.31325C9.35121 8.5445 9.65824 7.80153 10.195 7.25075C10.7575 6.67419 11.5098 6.3531 12.3137 6.34372C13.1082 6.33669 13.8793 6.64606 14.4465 7.20153C15.0278 7.77106 15.3465 8.53278 15.3465 9.34372C15.3465 10.1453 15.0348 10.8976 14.4676 11.4648C14.1893 11.7444 13.8584 11.9661 13.4939 12.1169C13.1294 12.2678 12.7386 12.3449 12.3442 12.3437ZM6.47308 9.96247C6.45199 9.75856 6.44027 9.55231 6.44027 9.34372C6.44027 8.97106 6.47543 8.60778 6.54105 8.25388C6.55746 8.1695 6.51293 8.08278 6.43558 8.04763C6.11683 7.90466 5.82386 7.70778 5.57074 7.45935C5.27247 7.17014 5.03777 6.82194 4.88159 6.43696C4.72542 6.05198 4.65121 5.63867 4.66371 5.22341C4.6848 4.47106 4.98714 3.75622 5.51449 3.21716C6.09339 2.62419 6.87152 2.30075 7.69886 2.31013C8.44652 2.31716 9.16839 2.60544 9.71449 3.11638C9.89964 3.28981 10.059 3.482 10.1926 3.68825C10.2395 3.76091 10.3309 3.79138 10.4106 3.76325C10.8231 3.62028 11.259 3.5195 11.7067 3.47263C11.8379 3.45856 11.9129 3.31794 11.8543 3.20075C11.0926 1.69372 9.53636 0.653095 7.73636 0.62497C5.13714 0.585126 2.97152 2.7156 2.97152 5.31013C2.97152 6.782 3.64886 8.0945 4.71058 8.95466C3.96527 9.29919 3.27855 9.77497 2.68324 10.3703C1.39886 11.6523 0.6723 13.3445 0.625425 15.1515C0.624799 15.1765 0.629187 15.2014 0.638329 15.2247C0.647471 15.248 0.661183 15.2692 0.678657 15.2872C0.696131 15.3051 0.717013 15.3193 0.740072 15.329C0.763132 15.3387 0.787903 15.3437 0.812925 15.3437H2.12777C2.22855 15.3437 2.31293 15.264 2.31527 15.1632C2.3598 13.8039 2.91058 12.5312 3.87855 11.5656C4.56761 10.8765 5.41136 10.3984 6.33246 10.1664C6.42386 10.1429 6.4848 10.0562 6.47308 9.96247Z" fill="#72849E"/>
</svg>
